<mxfile host="app.diagrams.net" modified="2023-06-09T16:20:50.920Z" agent="Mozilla/5.0 (Windows NT 10.0; Win64; x64) AppleWebKit/537.36 (KHTML, like Gecko) Chrome/114.0.0.0 Safari/537.36" etag="SrASZrPpFgc3s475xlU1" version="21.3.8" type="device">
  <diagram id="wUNmNfK328Jh42Ju8sjT" name="Page-1">
    <mxGraphModel dx="2924" dy="2224" grid="1" gridSize="10" guides="1" tooltips="1" connect="1" arrows="1" fold="1" page="1" pageScale="1" pageWidth="850" pageHeight="1100" math="0" shadow="0">
      <root>
        <mxCell id="0" />
        <mxCell id="1" parent="0" />
        <mxCell id="A7fe_lxEOW-8Zb_irczX-13" value="" style="edgeStyle=orthogonalEdgeStyle;rounded=0;orthogonalLoop=1;jettySize=auto;html=1;" edge="1" parent="1" source="fro3XcG9FiIzpfNefGbT-31" target="A7fe_lxEOW-8Zb_irczX-7">
          <mxGeometry relative="1" as="geometry" />
        </mxCell>
        <mxCell id="fro3XcG9FiIzpfNefGbT-31" value="User Alice" style="sketch=0;outlineConnect=0;fontColor=#232F3E;gradientColor=none;fillColor=#232F3D;strokeColor=none;dashed=0;verticalLabelPosition=bottom;verticalAlign=top;align=center;html=1;fontSize=12;fontStyle=0;aspect=fixed;pointerEvents=1;shape=mxgraph.aws4.user;" parent="1" vertex="1">
          <mxGeometry x="-800" y="151" width="78" height="78" as="geometry" />
        </mxCell>
        <mxCell id="fro3XcG9FiIzpfNefGbT-36" value="Alice&#39;s Friend Group" style="sketch=0;outlineConnect=0;fontColor=#232F3E;gradientColor=none;fillColor=#232F3D;strokeColor=none;dashed=0;verticalLabelPosition=bottom;verticalAlign=top;align=center;html=1;fontSize=12;fontStyle=0;aspect=fixed;pointerEvents=1;shape=mxgraph.aws4.users;strokeWidth=2;" parent="1" vertex="1">
          <mxGeometry x="-204" y="360" width="78" height="78" as="geometry" />
        </mxCell>
        <mxCell id="A7fe_lxEOW-8Zb_irczX-4" value="&lt;font face=&quot;Amazon Ember&quot; style=&quot;font-size: 16px;&quot;&gt;ManageAlbum&lt;/font&gt;" style="rounded=0;whiteSpace=wrap;html=1;fillColor=#fbd8bf;strokeColor=#000000;" vertex="1" parent="1">
          <mxGeometry x="-632" y="270" width="150" height="60" as="geometry" />
        </mxCell>
        <mxCell id="A7fe_lxEOW-8Zb_irczX-5" value="" style="group" vertex="1" connectable="0" parent="1">
          <mxGeometry x="-350" y="60" width="370" height="280" as="geometry" />
        </mxCell>
        <mxCell id="A7fe_lxEOW-8Zb_irczX-1" value="&lt;font face=&quot;Amazon Ember&quot; style=&quot;font-size: 20px;&quot;&gt;PhotoFlash account&lt;/font&gt;" style="rounded=0;whiteSpace=wrap;html=1;fillColor=#ff9900;strokeColor=#000000;verticalAlign=top;" vertex="1" parent="A7fe_lxEOW-8Zb_irczX-5">
          <mxGeometry width="370" height="280" as="geometry" />
        </mxCell>
        <mxCell id="fro3XcG9FiIzpfNefGbT-38" value="&lt;font style=&quot;font-size: 16px;&quot;&gt;IsPrivate&lt;/font&gt;" style="whiteSpace=wrap;html=1;rounded=1;arcSize=50;align=center;verticalAlign=middle;strokeWidth=1;autosize=1;spacing=4;treeFolding=1;treeMoving=1;newEdgeStyle={&quot;edgeStyle&quot;:&quot;entityRelationEdgeStyle&quot;,&quot;startArrow&quot;:&quot;none&quot;,&quot;endArrow&quot;:&quot;none&quot;,&quot;segment&quot;:10,&quot;curved&quot;:1};labelBackgroundColor=none;fillColor=#FBD8BF;" parent="A7fe_lxEOW-8Zb_irczX-5" vertex="1">
          <mxGeometry x="224" y="61.5" width="110" height="40" as="geometry" />
        </mxCell>
        <mxCell id="A7fe_lxEOW-8Zb_irczX-2" value="&lt;font style=&quot;font-size: 16px;&quot;&gt;Alice&#39;s Favorites Album&lt;/font&gt;" style="sketch=0;outlineConnect=0;fontColor=#232F3E;gradientColor=none;fillColor=#232F3D;strokeColor=none;dashed=0;verticalLabelPosition=bottom;verticalAlign=top;align=center;html=1;fontSize=12;fontStyle=0;aspect=fixed;pointerEvents=1;shape=mxgraph.aws4.folder;" vertex="1" parent="A7fe_lxEOW-8Zb_irczX-5">
          <mxGeometry x="146" y="179" width="78" height="71" as="geometry" />
        </mxCell>
        <mxCell id="A7fe_lxEOW-8Zb_irczX-3" value="&lt;font style=&quot;font-size: 16px;&quot;&gt;VacationPhoto94.jpg&lt;/font&gt;" style="sketch=0;outlineConnect=0;fontColor=#232F3E;gradientColor=none;fillColor=#232F3D;strokeColor=none;dashed=0;verticalLabelPosition=bottom;verticalAlign=top;align=center;html=1;fontSize=12;fontStyle=0;aspect=fixed;pointerEvents=1;shape=mxgraph.aws4.camera2;" vertex="1" parent="A7fe_lxEOW-8Zb_irczX-5">
          <mxGeometry x="68" y="50.5" width="78" height="62" as="geometry" />
        </mxCell>
        <mxCell id="A7fe_lxEOW-8Zb_irczX-25" value="" style="edgeStyle=orthogonalEdgeStyle;html=1;endArrow=block;elbow=vertical;startArrow=none;endFill=1;strokeColor=#545B64;rounded=0;entryX=0;entryY=0.5;entryDx=0;entryDy=0;" edge="1" parent="A7fe_lxEOW-8Zb_irczX-5" source="A7fe_lxEOW-8Zb_irczX-3" target="fro3XcG9FiIzpfNefGbT-38">
          <mxGeometry width="100" relative="1" as="geometry">
            <mxPoint x="340" y="300" as="sourcePoint" />
            <mxPoint x="440" y="300" as="targetPoint" />
          </mxGeometry>
        </mxCell>
        <mxCell id="A7fe_lxEOW-8Zb_irczX-6" value="&lt;font face=&quot;Amazon Ember&quot; style=&quot;font-size: 16px;&quot;&gt;ManageFriendGroup&lt;/font&gt;" style="rounded=0;whiteSpace=wrap;html=1;fillColor=#fbd8bf;strokeColor=#000000;" vertex="1" parent="1">
          <mxGeometry x="-632" y="369" width="150" height="60" as="geometry" />
        </mxCell>
        <mxCell id="A7fe_lxEOW-8Zb_irczX-7" value="&lt;font face=&quot;Amazon Ember&quot; style=&quot;font-size: 16px;&quot;&gt;FullPhotoAccess&lt;br&gt;LimitedPhotoAccess&lt;br&gt;SetPrivacyFlag&lt;br&gt;CommentPhoto&lt;br&gt;SharePhoto&lt;br&gt;UploadPhoto&lt;br&gt;DeletePhoto&lt;br&gt;ViewPhoto&lt;br&gt;&lt;/font&gt;" style="rounded=0;whiteSpace=wrap;html=1;fillColor=#fbd8bf;strokeColor=#000000;" vertex="1" parent="1">
          <mxGeometry x="-632" y="70" width="150" height="160" as="geometry" />
        </mxCell>
        <mxCell id="A7fe_lxEOW-8Zb_irczX-17" style="edgeStyle=orthogonalEdgeStyle;rounded=0;orthogonalLoop=1;jettySize=auto;html=1;exitX=1;exitY=0.5;exitDx=0;exitDy=0;entryX=0.5;entryY=0;entryDx=0;entryDy=0;" edge="1" parent="1" source="A7fe_lxEOW-8Zb_irczX-8" target="A7fe_lxEOW-8Zb_irczX-1">
          <mxGeometry relative="1" as="geometry" />
        </mxCell>
        <mxCell id="A7fe_lxEOW-8Zb_irczX-8" value="&lt;font face=&quot;Amazon Ember&quot; style=&quot;font-size: 16px;&quot;&gt;BlockAccountAccess&lt;br&gt;CloseAccount&lt;br&gt;ManageAccount&lt;br&gt;&lt;/font&gt;" style="rounded=0;whiteSpace=wrap;html=1;fillColor=#fbd8bf;strokeColor=#000000;" vertex="1" parent="1">
          <mxGeometry x="-632" y="-30" width="150" height="60" as="geometry" />
        </mxCell>
        <mxCell id="A7fe_lxEOW-8Zb_irczX-10" value="" style="edgeStyle=orthogonalEdgeStyle;html=1;endArrow=block;elbow=vertical;startArrow=none;endFill=1;strokeColor=#545B64;rounded=0;exitX=1;exitY=0.5;exitDx=0;exitDy=0;" edge="1" parent="1" source="A7fe_lxEOW-8Zb_irczX-6" target="fro3XcG9FiIzpfNefGbT-36">
          <mxGeometry width="100" relative="1" as="geometry">
            <mxPoint x="-10" y="460" as="sourcePoint" />
            <mxPoint x="90" y="460" as="targetPoint" />
          </mxGeometry>
        </mxCell>
        <mxCell id="A7fe_lxEOW-8Zb_irczX-12" value="" style="edgeStyle=orthogonalEdgeStyle;html=1;endArrow=block;elbow=vertical;startArrow=none;endFill=1;strokeColor=#545B64;rounded=0;exitX=1;exitY=0.5;exitDx=0;exitDy=0;" edge="1" parent="1" source="A7fe_lxEOW-8Zb_irczX-4">
          <mxGeometry width="100" relative="1" as="geometry">
            <mxPoint x="-10" y="460" as="sourcePoint" />
            <mxPoint x="-200" y="300" as="targetPoint" />
          </mxGeometry>
        </mxCell>
        <mxCell id="A7fe_lxEOW-8Zb_irczX-14" value="" style="edgeStyle=orthogonalEdgeStyle;html=1;endArrow=block;elbow=vertical;startArrow=none;endFill=1;strokeColor=#545B64;rounded=0;exitX=1;exitY=0.5;exitDx=0;exitDy=0;" edge="1" parent="1" source="A7fe_lxEOW-8Zb_irczX-7">
          <mxGeometry width="100" relative="1" as="geometry">
            <mxPoint x="-10" y="460" as="sourcePoint" />
            <mxPoint x="-280" y="150" as="targetPoint" />
          </mxGeometry>
        </mxCell>
        <mxCell id="A7fe_lxEOW-8Zb_irczX-20" value="" style="edgeStyle=orthogonalEdgeStyle;html=1;endArrow=block;elbow=vertical;startArrow=none;endFill=1;strokeColor=#545B64;rounded=0;entryX=0;entryY=0.5;entryDx=0;entryDy=0;" edge="1" parent="1" source="fro3XcG9FiIzpfNefGbT-31" target="A7fe_lxEOW-8Zb_irczX-4">
          <mxGeometry width="100" relative="1" as="geometry">
            <mxPoint x="-730" y="340" as="sourcePoint" />
            <mxPoint x="-680" y="320" as="targetPoint" />
          </mxGeometry>
        </mxCell>
        <mxCell id="A7fe_lxEOW-8Zb_irczX-22" value="" style="edgeStyle=orthogonalEdgeStyle;html=1;endArrow=block;elbow=vertical;startArrow=none;endFill=1;strokeColor=#545B64;rounded=0;entryX=0;entryY=0.5;entryDx=0;entryDy=0;" edge="1" parent="1" source="fro3XcG9FiIzpfNefGbT-31" target="A7fe_lxEOW-8Zb_irczX-6">
          <mxGeometry width="100" relative="1" as="geometry">
            <mxPoint x="-740" y="500" as="sourcePoint" />
            <mxPoint x="-640" y="500" as="targetPoint" />
          </mxGeometry>
        </mxCell>
        <mxCell id="A7fe_lxEOW-8Zb_irczX-23" value="" style="edgeStyle=orthogonalEdgeStyle;html=1;endArrow=block;elbow=vertical;startArrow=none;endFill=1;strokeColor=#545B64;rounded=0;entryX=0;entryY=0.5;entryDx=0;entryDy=0;" edge="1" parent="1" source="fro3XcG9FiIzpfNefGbT-31" target="A7fe_lxEOW-8Zb_irczX-8">
          <mxGeometry width="100" relative="1" as="geometry">
            <mxPoint x="-10" y="360" as="sourcePoint" />
            <mxPoint x="90" y="360" as="targetPoint" />
          </mxGeometry>
        </mxCell>
      </root>
    </mxGraphModel>
  </diagram>
</mxfile>
